<svg width="446" height="432" viewBox="0 0 446 432" fill="none" xmlns="http://www.w3.org/2000/svg">
    <rect fill="white" x="0" y="0" width="446" height="432" />
    <path d="M114.879 222.75C129.807 222.75 141.909 210.662 141.909 195.75C141.909 180.838 129.807 168.75 114.879 168.75C99.9504 168.75 87.8485 180.838 87.8485 195.75C87.8485 210.662 99.9504 222.75 114.879 222.75Z" fill="#242424"/>
    <path d="M331.121 222.75C346.05 222.75 358.152 210.662 358.152 195.75C358.152 180.838 346.05 168.75 331.121 168.75C316.193 168.75 304.091 180.838 304.091 195.75C304.091 210.662 316.193 222.75 331.121 222.75Z" fill="#242424"/>
    <path d="M259.137 296.775C246.787 296.775 236.723 287.775 235.122 275.85C234.893 274.05 233.292 272.475 231.463 272.475H229.862C228.032 272.475 226.431 273.825 226.202 275.85C226.202 276.075 226.202 276.525 226.202 276.75C228.261 292.95 242.212 305.55 259.137 305.55C276.063 305.55 290.014 292.95 292.073 276.75C292.302 274.5 290.701 272.475 288.413 272.475H286.812C284.983 272.475 283.382 273.825 283.153 275.85C281.552 287.775 271.488 296.775 259.137 296.775Z" fill="#242424"/>
    <path d="M202.187 296.775C189.836 296.775 179.772 287.775 178.171 275.85C177.943 274.05 176.342 272.475 174.512 272.475H173.139C171.31 272.475 169.48 274.05 169.48 275.85C169.48 276.075 169.48 276.525 169.48 276.75C171.538 292.95 185.49 305.55 202.415 305.55C219.341 305.55 233.292 292.95 235.351 276.75C235.58 274.5 233.978 272.475 231.691 272.475H230.319C228.489 272.475 226.888 273.825 226.659 275.85C224.601 287.775 214.537 296.775 202.187 296.775Z" fill="#242424"/>
</svg>
